<svg width="0" height="0" class="hidden">
  <symbol xmlns="http://www.w3.org/2000/svg" viewBox="0 0 24 24" id="phonecall_110970">
    <title>phone-call</title>
    <path d="M13 8a3 3 0 013 3 1 1 0 002 0 5 5 0 00-5-5 1 1 0 000 2z"></path>
    <path d="M13 4a7 7 0 017 7 1 1 0 002 0 9 9 0 00-9-9 1 1 0 000 2zm8.75 11.91a1 1 0 00-.72-.65l-6-1.37a1 1 0 00-.92.26c-.14.13-.15.14-.8 1.38a9.91 9.91 0 01-4.87-4.89C9.71 10 9.72 10 9.85 9.85a1 1 0 00.26-.92L8.74 3a1 1 0 00-.65-.72 3.79 3.79 0 00-.72-.18A3.94 3.94 0 006.6 2 4.6 4.6 0 002 6.6 15.42 15.42 0 0017.4 22a4.6 4.6 0 004.6-4.6 4.77 4.77 0 00-.06-.76 4.34 4.34 0 00-.19-.73z"></path>
  </symbol>
  <symbol xmlns="http://www.w3.org/2000/svg" viewBox="0 0 116.379 194.42" id="1485968526-facebooksocialnetworkbrandlogo_78834">
    <path d="M97.353 34.754h19.026V.02H81.807c-2.883-.12-38.04-.793-47.153 33.956-.133.365-3.043 8.626-3.043 27.931L0 62.002v36.43l31.652-.094v96.082H80v-96h32V61.896H80V50.404c0-7.14 3.01-15.65 17.353-15.65zM104 69.896V90.42H72v96H39.652V90.314L8 90.408v-20.43l31.734-.093-.082-4.069c-.414-20.447 2.5-29.049 2.631-29.459 7.863-29.93 37.89-28.422 39.18-28.344l26.916.008v18.733H97.353C78.66 26.754 72 38.97 72 50.404v19.492h32z"></path>
  </symbol>
  <symbol xmlns="http://www.w3.org/2000/svg" viewBox="0 0 192 188" id="1485969402-instagramsocialnetworkbrandlogo_78830">
    <path d="M161.601 20h-19.203C136.664 20 132 24.664 132 30.398v19.204C132 55.336 136.664 60 142.398 60h19.204C167.336 60 172 55.336 172 49.602V30.399C172 24.663 167.336 20 161.601 20zM164 49.602A2.4 2.4 0 01161.601 52h-19.203A2.4 2.4 0 01140 49.602V30.399A2.4 2.4 0 01142.398 28h19.204A2.4 2.4 0 01164 30.398v19.204z"></path>
    <path d="M151.2 0H40.8C18.306 0 0 18.358 0 40.924v106.154C0 169.643 18.305 188 40.8 188h110.4c22.495 0 40.8-18.357 40.8-40.922V40.924C192 18.358 173.695 0 151.2 0zM184 147.078C184 165.231 169.285 180 151.2 180H40.8C22.716 180 8 165.23 8 147.078V76h48.883C46.482 86.173 40 100.336 40 116c0 30.879 25.121 56 56 56s56-25.121 56-56c0-15.664-6.482-29.827-16.883-40H184v71.078zM144 116c0 26.467-21.531 48-48 48s-48-21.533-48-48 21.531-48 48-48 48 21.533 48 48zm-19.305-48c-8.405-5.044-18.199-8-28.695-8s-20.29 2.956-28.696 8H8V40.924C8 22.77 22.715 8 40.8 8h110.4C169.284 8 184 22.77 184 40.924V68h-59.305z"></path>
    <path d="M60 116c0 19.85 16.148 36 36 36s36-16.15 36-36-16.148-36-36-36-36 16.15-36 36zm64 0c0 15.44-12.563 28-28 28-15.438 0-28-12.56-28-28s12.562-28 28-28 28 12.56 28 28z"></path>
  </symbol>
  <symbol xmlns="http://www.w3.org/2000/svg" viewBox="0 0 192 210.043" id="1485969384-vibersocialnetworkbrandlogo_78890">
    <path d="M116.004 0H75.996C34.092 0 0 34.086 0 75.98v36.04c0 31.199 19.172 59.238 48 70.66v23.363a3.998 3.998 0 004 4 4 4 0 002.686-1.035L77.879 188h38.125C157.908 188 192 153.914 192 112.02V75.98C192 34.086 157.908 0 116.004 0zM184 112.02c0 37.484-30.502 67.98-67.996 67.98H76.336c-.992 0-1.95.367-2.686 1.035L56 197.024v-17.118a3.994 3.994 0 00-2.668-3.77C26.219 166.552 8 140.787 8 112.02V75.98C8 38.496 38.502 8 75.996 8h40.008C153.498 8 184 38.496 184 75.98v36.04z"></path>
    <path d="M148.863 121.973l-24.586-15.969a11.987 11.987 0 00-9.021-1.692 11.902 11.902 0 00-7.58 5.212l-1.156 1.777c-10.641-3.516-22.374-8.008-29.397-28.34l2.908-2.527h.002c4.99-4.34 5.516-11.934 1.174-16.934L61.975 41.375a4.005 4.005 0 00-5.645-.395L44.256 51.476c-10.594 9.208-5.643 22.829-4.016 27.305.072.2.16.391.264.578.42.754 10.45 18.649 26.642 35.145 16.26 16.562 45.618 31.86 46.518 32.304a19.89 19.89 0 0010.856 3.22c6.55 0 12.976-3.212 16.806-9.102l8.713-13.418a4.003 4.003 0 00-1.176-5.535zm-14.246 14.593c-3.605 5.551-11.05 7.13-16.933 3.336-.293-.152-29.456-15.34-44.828-31-14.368-14.636-23.907-30.894-25.21-33.164-3.17-8.882-2.609-14.344 1.856-18.222l9.058-7.872L75.168 68.75c1.474 1.695 1.305 4.176-.385 5.644l-4.908 4.266a3.997 3.997 0 00-1.2 4.196c8.37 27.19 24.641 32.53 36.522 36.433l1.73.57a3.978 3.978 0 004.62-1.613l2.838-4.367a3.957 3.957 0 012.52-1.735 3.978 3.978 0 013.013.57l21.232 13.79-6.533 10.062zm-29.488-71.578a3.99 3.99 0 00-4.943 2.754 4.002 4.002 0 002.752 4.942c5.96 1.695 10.706 6.453 12.388 12.418a4.002 4.002 0 004.936 2.765 4.002 4.002 0 002.763-4.937c-2.427-8.618-9.287-15.492-17.896-17.942z"></path>
    <path d="M135.57 88.875a4.002 4.002 0 003.852-5.086c-4.719-16.73-18.037-30.078-34.756-34.836-2.125-.613-4.338.633-4.941 2.754a4.001 4.001 0 002.753 4.941c14.067 4 25.274 15.235 29.245 29.313a4.002 4.002 0 003.847 2.914z"></path>
    <path d="M102.943 30.328A3.99 3.99 0 0098 33.082a4.002 4.002 0 002.752 4.942c23.838 6.78 42.824 25.812 49.55 49.664a4.001 4.001 0 004.936 2.765 4.004 4.004 0 002.764-4.937c-7.475-26.504-28.572-47.649-55.059-55.188z"></path>
  </symbol>
</svg>